<?xml version="1.0" encoding="UTF-8"?>
<svg id="Layer_2" data-name="Layer 2" xmlns="http://www.w3.org/2000/svg" viewBox="0 0 72.42 224.49">
  <defs>
    <style>
      .cls-1 {
        fill: #cdae6d;
      }
    </style>
  </defs>
  <g id="Layer_1-2" data-name="Layer 1">
    <path class="cls-1" d="M70.51,115.04h0c1.75-.81,2.42-2.73,1.5-4.27L6.75,1.69C5.83,.14,3.66-.45,1.91,.37h0C.16,1.18-.51,3.09,.41,4.63L65.67,113.72c.92,1.54,3.09,2.13,4.84,1.32Z"/>
    <path class="cls-1" d="M1.91,224.12h0c-1.75-.81-2.42-2.73-1.5-4.27L65.67,110.77c.92-1.54,3.09-2.13,4.84-1.32h0c1.75,.81,2.42,2.73,1.5,4.27L6.75,222.8c-.92,1.54-3.09,2.13-4.84,1.32Z"/>
  </g>
</svg>